HIERARCHY
ROOT Hips
{
	OFFSET 0.000000 0.000000 0.000000
	CHANNELS 6 Xposition Yposition Zposition Zrotation Yrotation Xrotation 
	JOINT LHipJoint
	{
		OFFSET 0.000000 0.000000 0.000000
		CHANNELS 3 Zrotation Yrotation Xrotation
		JOINT LeftUpLeg
		{
			OFFSET 1.363060 -1.794630 0.839290
			CHANNELS 3 Zrotation Yrotation Xrotation
			JOINT LeftLeg
			{
				OFFSET 2.448110 -6.726130 0.000000
				CHANNELS 3 Zrotation Yrotation Xrotation
				JOINT LeftFoot
				{
					OFFSET 2.562200 -7.039590 0.000000
					CHANNELS 3 Zrotation Yrotation Xrotation
					JOINT LeftToeBase
					{
						OFFSET 0.157640 -0.433110 2.322550
						CHANNELS 3 Zrotation Yrotation Xrotation
						End Site
						{
							OFFSET 0.000000 0.000000 0.000000
						}
					}
				}
			}
		}
	}
	JOINT RHipJoint
	{
		OFFSET 0.000000 0.000000 0.000000
		CHANNELS 3 Zrotation Yrotation Xrotation
		JOINT RightUpLeg
		{
			OFFSET -1.305520 -1.794630 0.839290
			CHANNELS 3 Zrotation Yrotation Xrotation
			JOINT RightLeg
			{
				OFFSET -2.542530 -6.985550 0.000000
				CHANNELS 3 Zrotation Yrotation Xrotation
				JOINT RightFoot
				{
					OFFSET -2.568260 -7.056230 0.000000
					CHANNELS 3 Zrotation Yrotation Xrotation
					JOINT RightToeBase
					{
						OFFSET -0.164730 -0.452590 2.363150
						CHANNELS 3 Zrotation Yrotation Xrotation
						End Site
						{
							OFFSET 0.000000 0.000000 0.000000
						}
					}
				}
			}
		}
	}
}
MOTION
Frames: 28
Frame Time: 0.008333
-2.501760 16.851166 -0.119460 -139.764070 87.614750 -102.309014 -13.681337 2.481059 -1.522703 -2.314390 2.987027 -4.462876 -0.309168 0.460897 12.295258 1.431680 10.374301 13.116074 3.288301 0.000000 -35.943301 5.771765 -0.870771 4.451645 11.655741 10.952274 -64.649923 4.288598 0.096068 13.140853 -0.783409 -4.815986 4.717809 -2.584100 -0.000000 -52.688700
-2.163734 16.772700 -0.096496 -133.776846 87.838631 -97.044941 -13.623537 2.642069 -1.590979 -2.523166 3.295717 -3.389048 -0.223880 0.546795 14.543363 1.550614 11.344883 12.276006 3.471800 0.000000 -34.118000 5.792949 -1.049388 4.213022 12.820345 10.596844 -64.288455 4.267626 -0.235727 14.974443 -0.823404 -4.825700 4.351065 -2.526400 0.000000 -50.973700
-1.826546 16.683443 -0.071941 -126.339444 88.005137 -90.342883 -13.524301 2.789139 -1.661024 -2.743894 3.702897 -2.594602 -0.142357 0.650263 17.331232 1.662639 12.175938 11.348145 3.567500 -0.000001 -32.935501 5.852489 -1.220300 3.987255 13.757659 10.318383 -64.124217 4.150176 -0.680758 17.707893 -0.889623 -4.757364 3.439434 -2.372300 -0.000000 -48.946000
-1.491055 16.584691 -0.045980 -117.520260 88.084798 -82.265429 -13.391115 2.927296 -1.740110 -2.933278 4.266523 -2.128864 -0.067363 0.778211 20.666944 1.763761 12.836862 10.368033 3.571799 -0.000000 -32.191300 5.958287 -1.354018 3.776334 14.464947 10.119699 -64.121795 3.941893 -1.205078 21.209555 -0.981372 -4.638118 2.002843 -2.133100 0.000001 -46.533700
-1.158262 16.478515 -0.018883 -107.648102 88.067595 -73.137105 -13.234602 3.064079 -1.827483 -3.078047 4.963769 -1.982091 0.004444 0.936034 24.478353 1.860661 13.397739 9.401699 3.523700 0.000001 -31.787300 6.113115 -1.421398 3.572700 14.963461 9.984693 -64.218307 3.658989 -1.765577 25.296470 -1.092009 -4.484379 0.095550 -1.822800 0.000000 -43.733200
-0.829183 16.367640 0.008781 -97.348027 87.950797 -63.573696 -13.078501 3.202744 -1.923853 -3.167816 5.767732 -2.141074 0.076511 1.127536 28.681230 1.960946 13.937954 8.501339 3.462000 -0.000001 -31.598900 6.306003 -1.411891 3.374151 15.297215 9.901495 -64.337210 3.327767 -2.314275 29.732742 -1.214587 -4.319390 -2.193609 -1.463000 0.000001 -40.615700
-0.504809 16.255384 0.036235 -87.455065 87.740483 -54.398732 -12.952149 3.339125 -2.031221 -3.197204 6.645914 -2.585380 0.154733 1.352776 33.180023 2.072433 14.538416 7.707885 3.421700 -0.000000 -31.516999 6.514270 -1.339038 3.182488 15.527674 9.858764 -64.404135 2.980207 -2.811453 34.268639 -1.342517 -4.160818 -4.757725 -1.076000 0.000000 -37.348200
-0.186005 16.145395 0.062617 -78.771790 87.449914 -46.403870 -12.879145 3.461189 -2.152357 -3.161592 7.567363 -3.293342 0.247685 1.607016 37.881139 2.201478 15.263827 7.044816 3.428500 -0.000000 -31.435500 6.712346 -1.234670 3.001403 15.722749 9.844065 -64.359086 2.647227 -3.234938 38.681656 -1.471031 -4.016919 -7.489286 -0.680600 0.000000 -34.150400
0.126558 16.041332 0.087115 -71.791137 87.093532 -40.073010 -12.868190 3.553339 -2.288858 -3.057871 8.501410 -4.243284 0.364283 1.881881 42.696367 2.352453 16.155261 6.521469 3.498100 -0.000000 -31.282800 6.882385 -1.134366 2.833748 15.945662 9.844036 -64.160386 2.353472 -3.580489 42.796437 -1.597150 -3.887715 -10.284740 -0.291100 0.000000 -31.259699
0.432327 15.946543 0.109229 -66.577051 86.678793 -35.464276 -12.912889 3.603094 -2.441096 -2.887584 9.421461 -5.414990 0.509283 2.169135 47.545547 2.526678 17.223302 6.131496 3.636300 -0.000000 -31.011200 7.018947 -1.063594 2.679290 16.244839 9.845914 -63.780101 2.114319 -3.855210 46.489262 -1.718420 -3.766731 -13.045314 0.081100 0.000000 -28.904500
0.730950 15.863716 0.128827 -62.880029 86.204866 -32.324438 -12.998697 3.605024 -2.608007 -2.660497 10.305383 -6.790287 0.681840 2.463558 52.356439 2.721564 18.446388 5.853959 3.838400 -0.000000 -30.597800 7.125263 -1.033340 2.535430 16.647323 9.839497 -63.201825 1.936006 -4.069253 49.679648 -1.832070 -3.644322 -15.678182 0.425700 0.000000 -27.265300
1.022259 15.794853 0.146135 -60.306660 85.667708 -30.259291 -13.109003 3.560532 -2.786590 -2.395762 11.134241 -8.351764 0.877671 2.763021 57.063629 2.930361 19.773165 5.658725 4.089701 0.000000 -30.054000 7.208299 -1.043208 2.398702 17.156808 9.814669 -62.415331 1.817859 -4.230820 52.319839 -1.934243 -3.509214 -18.098258 0.732700 0.000000 -26.457600
1.306239 15.741097 0.161769 -58.466529 85.065807 -28.879942 -13.228214 3.474780 -2.972970 -2.117080 11.891612 -10.083233 1.091735 3.067208 61.610168 3.142662 21.127902 5.504218 4.364200 0.000001 -29.402900 7.275301 -1.086007 2.265870 17.757919 9.762041 -61.419425 1.755161 -4.345190 54.388778 -2.020422 -3.351082 -20.235024 0.992700 0.000001 -26.508700
1.583093 15.702807 0.176577 -57.019985 84.404560 -27.849198 -13.342092 3.355539 -3.161397 -1.854071 12.561584 -11.969963 1.319859 3.375630 65.947107 3.346084 22.422224 5.341642 4.626100 0.000000 -28.672301 7.333669 -1.150942 2.135364 18.418998 9.672079 -60.221894 1.740926 -4.415263 55.889126 -2.086145 -3.162012 -22.039344 1.198200 0.000000 -27.340400
1.853204 15.679595 0.191521 -55.725697 83.696256 -26.927907 -13.439238 3.210501 -3.345236 -1.635934 13.128648 -13.999298 1.559081 3.686356 70.033495 3.528053 23.565908 5.116662 4.832000 -0.000000 -27.881300 7.389368 -1.226660 2.006804 19.100469 9.537828 -58.840375 1.767258 -4.442880 56.844973 -2.128413 -2.939088 -23.489087 1.345700 0.000001 -28.765600
2.117135 15.670558 0.207516 -54.423621 82.958766 -25.957156 -13.511164 3.046729 -3.516774 -1.489731 13.577681 -16.161104 1.806847 3.995469 73.835665 3.677510 24.478081 4.774304 4.936700 -0.000000 -27.031801 7.447081 -1.302470 1.881250 19.759050 9.356073 -57.302084 1.825645 -4.429740 57.299537 -2.146869 -2.686520 -24.590193 1.437400 0.000001 -30.519800
2.375651 15.674398 0.225353 -53.021926 82.212947 -24.843208 -13.552722 2.869675 -3.667807 -1.437427 13.894299 -18.447719 2.059858 4.297130 77.325559 3.785939 25.095233 4.262161 4.899400 -0.000001 -26.099200 7.509673 -1.369710 1.760840 20.353664 9.129334 -55.643458 1.907094 -4.378216 57.312067 -2.144131 -2.416232 -25.371542 1.480800 -0.000000 -32.321100
2.629593 15.689655 0.245614 -51.472802 81.480216 -23.534909 -13.561768 2.682920 -3.789847 -1.493701 14.064865 -20.851152 2.313098 4.584022 80.478128 3.848280 25.379676 3.545302 4.696700 -0.000000 -25.095800 7.578397 -1.422284 1.648051 20.849020 8.864713 -53.905678 2.002422 -4.291691 56.953428 -2.125203 -2.145692 -25.878459 1.487600 0.000000 -33.930500
2.879989 15.714851 0.268502 -49.780167 80.779247 -22.029657 -13.539427 2.487180 -3.875325 -1.660577 14.079050 -23.363937 2.559367 4.848623 83.272687 3.862379 25.317944 2.595564 4.321400 -0.000001 -23.952299 7.651940 -1.457926 1.545668 21.221426 8.575182 -52.132693 2.103111 -4.174819 56.299295 -2.096708 -1.895702 -26.164272 1.471200 -0.000000 -35.189700
3.127876 15.748713 0.293964 -47.960199 80.125665 -20.337975 -13.488275 2.281319 -3.917157 -1.930263 13.928613 -25.974144 2.789206 5.083499 85.687811 3.830168 24.929727 1.423415 3.797700 0.000000 -22.718300 7.728196 -1.476868 1.455750 21.456701 8.274541 -50.365980 2.201658 -4.033284 55.425964 -2.064924 -1.683953 -26.282675 1.444000 -0.000000 -36.029700
3.374270 15.790252 0.321569 -46.054524 79.529321 -18.496131 -13.411879 2.062253 -3.910580 -2.282381 13.611797 -28.667275 2.991773 5.283011 87.704820 3.756765 24.259752 0.052358 3.166001 0.000000 -21.350100 7.804140 -1.481838 1.379183 21.553319 7.976778 -48.641546 2.292618 -3.873541 54.403049 -2.034436 -1.520714 -26.280047 1.415000 0.000000 -36.465700
3.620229 15.838893 0.350810 -44.108836 78.996720 -16.546309 -13.313211 1.826282 -3.850715 -2.689421 13.129064 -31.423739 3.155954 5.442115 89.301375 3.652276 23.385484 -1.436403 2.493900 -0.000000 -20.030800 7.877510 -1.476953 1.315905 21.517540 7.691056 -46.985955 2.372523 -3.701881 53.287165 -2.006295 -1.404610 -26.184619 1.387400 0.000000 -36.591100
3.866628 15.894340 0.381014 -42.162747 78.528606 -14.529300 -13.194017 1.570604 -3.737252 -3.119749 12.491538 -34.219176 3.272015 5.559023 90.458912 3.529022 22.394589 -2.973982 1.836500 0.000001 -18.750101 7.947664 -1.465737 1.262603 21.361016 7.419942 -45.414892 2.439739 -3.524364 52.121786 -1.977105 -1.320001 -26.003238 1.358299 0.000000 -36.566900
4.114392 15.956713 0.411541 -40.247890 78.124080 -12.480747 -13.054637 1.294275 -3.569670 -3.543242 11.712807 -37.024801 3.332725 5.632286 91.155273 3.402587 21.388699 -4.457711 1.248400 -0.000000 -17.682000 8.015653 -1.451776 1.215326 21.096528 7.158133 -43.932398 2.494108 -3.345719 50.929988 -1.938648 -1.237937 -25.713485 1.318400 0.000000 -36.616600
4.364230 16.026284 0.441826 -38.380867 77.780462 -10.427086 -12.894452 0.999369 -3.350365 -3.934532 10.813108 -39.806467 3.333971 5.662129 91.370571 3.287865 20.458427 -5.812072 0.757100 -0.000000 -16.862500 8.084157 -1.437943 1.168068 20.735978 6.891778 -42.531422 2.536249 -3.169741 49.718811 -1.878985 -1.120071 -25.268106 1.254400 0.000000 -37.000500
4.616774 16.103349 0.471427 -36.561517 77.495234 -8.382141 -12.712613 0.691309 -3.083124 -4.275673 9.814545 -42.523564 3.274403 5.649101 91.084888 3.197436 19.675209 -6.986612 0.369600 -0.000000 -16.277900 8.156787 -1.426873 1.114235 20.288547 6.600715 -41.195830 2.567101 -2.999173 48.480063 -1.784376 -0.924165 -24.601204 1.152200 -0.000000 -37.977100
4.872552 16.188158 0.500109 -34.776023 77.267322 -6.349128 -12.508739 0.378293 -2.772898 -4.557259 8.739439 -45.130383 3.154793 5.593566 90.278373 3.139510 19.080418 -7.960436 0.077600 -0.000000 -15.896400 8.237358 -1.421159 1.047527 19.760202 6.260972 -39.903807 2.587463 -2.836035 47.195200 -1.642525 -0.612531 -23.641180 1.002201 0.000000 -39.746200
5.131881 16.280577 0.527708 -33.002589 77.097089 -4.325875 -12.283469 0.070267 -2.426338 -4.777081 7.609079 -47.576420 2.977601 5.495865 88.933923 3.116847 18.679984 -8.747311 -0.137100 -0.000000 -15.606900 8.329211 -1.423245 0.962010 19.156014 5.848282 -38.630516 2.597681 -2.682120 45.842664 -1.446158 -0.160043 -22.326936 0.805300 -0.000000 -42.380300
